<svg width="21" height="7" viewBox="0 0 21 7" fill="none" xmlns="http://www.w3.org/2000/svg">
<path d="M14 3.5C14 5.433 12.433 7 10.5 7C8.567 7 7 5.433 7 3.5C7 1.567 8.567 0 10.5 0C12.433 0 14 1.567 14 3.5Z" fill="black"/>
<path d="M19.1979 4.66667C19.0331 4.27937 18.5287 3.66577 17.1911 3.03519C15.5691 2.27058 13.2054 1.75 10.5 1.75C7.79458 1.75 5.43087 2.27058 3.80895 3.03519C2.47132 3.66577 1.96691 4.27937 1.80214 4.66667H0C0.32025 2.06401 4.89882 0 10.5 0C16.1012 0 20.6797 2.06401 21 4.66667H19.1979Z" fill="black"/>
</svg>
